# xmcd CD database file
# Copyright (C) 1993-1996 Ti Kan
#
# Track frame offsets:
# 182
# 12210
# 23035
# 35042
# 49600
# 63865
# 81097
# 93892
# 105705
# 118305
# 136340
# 149680
# 160770
# 172145
# 183130
# 194820
# 204922
# 214590
# 225462
#
# Disc length: 3139 seconds
#
# Revision: 0
# Processed by: cddbd v1.5.2PL0 Copyright (c) Steve Scherf et al.
# Submitted via: inCDius 1.1b5
#
DISCID=060c4113
DTITLE=Stonewall Jackson - 19 Great Country Songs -Waterloo
DYEAR=1998
DGENRE=Country
TTITLE0=Waterloo
TTITLE1=Why I'm Walking
TTITLE2=A Little Guy Called Joe
TTITLE3=A Wound Time Can't Erase
TTITLE4=Don't Be Angry
TTITLE5=I Washed My Hands In Muddy Water
TTITLE6=I'm Just An Old Chunk Of Coal (but I'm Gonna Be A Diamond Someday)
TTITLE7=Full Moon, Empty Pockets
TTITLE8=There's No Short Cuts (To Get Me Over You)
TTITLE9=Breaking Up Breakdown
TTITLE10=Let The Sun Shine On The People
TTITLE11=Tears On Her Bridal Bouquet
TTITLE12=I'm Gonna Find You
TTITLE13=I Need You Real Bad
TTITLE14=A Broken Heart, AWeddingg Band
TTITLE15=Grieving In My Heart
TTITLE16=Misery Known As heartache
TTITLE17=Wedding Bells For You And Him
TTITLE18=Knock Off Your Naggin'
EXTD=
EXTT0=
EXTT1=
EXTT2=
EXTT3=
EXTT4=
EXTT5=
EXTT6=
EXTT7=
EXTT8=
EXTT9=
EXTT10=
EXTT11=
EXTT12=
EXTT13=
EXTT14=
EXTT15=
EXTT16=
EXTT17=
EXTT18=
PLAYORDER=
